<?xml version="1.0" encoding="utf-8" standalone="no"?>
<!DOCTYPE svg PUBLIC "-//W3C//DTD SVG 1.1//EN"
  "http://www.w3.org/Graphics/SVG/1.1/DTD/svg11.dtd">
<svg xmlns:xlink="http://www.w3.org/1999/xlink" width="333.8525pt" height="385.214375pt" viewBox="0 0 333.8525 385.214375" xmlns="http://www.w3.org/2000/svg" version="1.1">
 <metadata>
  <rdf:RDF xmlns:dc="http://purl.org/dc/elements/1.1/" xmlns:cc="http://creativecommons.org/ns#" xmlns:rdf="http://www.w3.org/1999/02/22-rdf-syntax-ns#">
   <cc:Work>
    <dc:type rdf:resource="http://purl.org/dc/dcmitype/StillImage"/>
    <dc:date>2023-04-24T04:57:19.916943</dc:date>
    <dc:format>image/svg+xml</dc:format>
    <dc:creator>
     <cc:Agent>
      <dc:title>Matplotlib v3.7.1, https://matplotlib.org/</dc:title>
     </cc:Agent>
    </dc:creator>
   </cc:Work>
  </rdf:RDF>
 </metadata>
 <defs>
  <style type="text/css">*{stroke-linejoin: round; stroke-linecap: butt}</style>
 </defs>
 <g id="figure_1">
  <g id="patch_1">
   <path d="M 0 385.214375 
L 333.8525 385.214375 
L 333.8525 0 
L 0 0 
z
" style="fill: #ffffff"/>
  </g>
  <g id="axes_1">
   <g id="patch_2">
    <path d="M 47.6525 284.4 
L 326.6525 284.4 
L 326.6525 7.2 
L 47.6525 7.2 
z
" style="fill: #ffffff"/>
   </g>
   <g id="matplotlib.axis_1">
    <g id="xtick_1">
     <g id="line2d_1">
      <defs>
       <path id="m022b8f5bce" d="M 0 0 
L 0 3.5 
" style="stroke: #000000; stroke-width: 0.8"/>
      </defs>
      <g>
       <use xlink:href="#m022b8f5bce" x="60.334318" y="284.4" style="stroke: #000000; stroke-width: 0.8"/>
      </g>
     </g>
     <g id="text_1">
      <!-- 0 -->
      <g transform="translate(57.153068 298.998438) scale(0.1 -0.1)">
       <defs>
        <path id="DejaVuSans-30" d="M 2034 4250 
Q 1547 4250 1301 3770 
Q 1056 3291 1056 2328 
Q 1056 1369 1301 889 
Q 1547 409 2034 409 
Q 2525 409 2770 889 
Q 3016 1369 3016 2328 
Q 3016 3291 2770 3770 
Q 2525 4250 2034 4250 
z
M 2034 4750 
Q 2819 4750 3233 4129 
Q 3647 3509 3647 2328 
Q 3647 1150 3233 529 
Q 2819 -91 2034 -91 
Q 1250 -91 836 529 
Q 422 1150 422 2328 
Q 422 3509 836 4129 
Q 1250 4750 2034 4750 
z
" transform="scale(0.015625)"/>
       </defs>
       <use xlink:href="#DejaVuSans-30"/>
      </g>
     </g>
    </g>
    <g id="xtick_2">
     <g id="line2d_2">
      <g>
       <use xlink:href="#m022b8f5bce" x="112.096841" y="284.4" style="stroke: #000000; stroke-width: 0.8"/>
      </g>
     </g>
     <g id="text_2">
      <!-- 10 -->
      <g transform="translate(105.734341 298.998438) scale(0.1 -0.1)">
       <defs>
        <path id="DejaVuSans-31" d="M 794 531 
L 1825 531 
L 1825 4091 
L 703 3866 
L 703 4441 
L 1819 4666 
L 2450 4666 
L 2450 531 
L 3481 531 
L 3481 0 
L 794 0 
L 794 531 
z
" transform="scale(0.015625)"/>
       </defs>
       <use xlink:href="#DejaVuSans-31"/>
       <use xlink:href="#DejaVuSans-30" x="63.623047"/>
      </g>
     </g>
    </g>
    <g id="xtick_3">
     <g id="line2d_3">
      <g>
       <use xlink:href="#m022b8f5bce" x="163.859365" y="284.4" style="stroke: #000000; stroke-width: 0.8"/>
      </g>
     </g>
     <g id="text_3">
      <!-- 20 -->
      <g transform="translate(157.496865 298.998438) scale(0.1 -0.1)">
       <defs>
        <path id="DejaVuSans-32" d="M 1228 531 
L 3431 531 
L 3431 0 
L 469 0 
L 469 531 
Q 828 903 1448 1529 
Q 2069 2156 2228 2338 
Q 2531 2678 2651 2914 
Q 2772 3150 2772 3378 
Q 2772 3750 2511 3984 
Q 2250 4219 1831 4219 
Q 1534 4219 1204 4116 
Q 875 4013 500 3803 
L 500 4441 
Q 881 4594 1212 4672 
Q 1544 4750 1819 4750 
Q 2544 4750 2975 4387 
Q 3406 4025 3406 3419 
Q 3406 3131 3298 2873 
Q 3191 2616 2906 2266 
Q 2828 2175 2409 1742 
Q 1991 1309 1228 531 
z
" transform="scale(0.015625)"/>
       </defs>
       <use xlink:href="#DejaVuSans-32"/>
       <use xlink:href="#DejaVuSans-30" x="63.623047"/>
      </g>
     </g>
    </g>
    <g id="xtick_4">
     <g id="line2d_4">
      <g>
       <use xlink:href="#m022b8f5bce" x="215.621888" y="284.4" style="stroke: #000000; stroke-width: 0.8"/>
      </g>
     </g>
     <g id="text_4">
      <!-- 30 -->
      <g transform="translate(209.259388 298.998438) scale(0.1 -0.1)">
       <defs>
        <path id="DejaVuSans-33" d="M 2597 2516 
Q 3050 2419 3304 2112 
Q 3559 1806 3559 1356 
Q 3559 666 3084 287 
Q 2609 -91 1734 -91 
Q 1441 -91 1130 -33 
Q 819 25 488 141 
L 488 750 
Q 750 597 1062 519 
Q 1375 441 1716 441 
Q 2309 441 2620 675 
Q 2931 909 2931 1356 
Q 2931 1769 2642 2001 
Q 2353 2234 1838 2234 
L 1294 2234 
L 1294 2753 
L 1863 2753 
Q 2328 2753 2575 2939 
Q 2822 3125 2822 3475 
Q 2822 3834 2567 4026 
Q 2313 4219 1838 4219 
Q 1578 4219 1281 4162 
Q 984 4106 628 3988 
L 628 4550 
Q 988 4650 1302 4700 
Q 1616 4750 1894 4750 
Q 2613 4750 3031 4423 
Q 3450 4097 3450 3541 
Q 3450 3153 3228 2886 
Q 3006 2619 2597 2516 
z
" transform="scale(0.015625)"/>
       </defs>
       <use xlink:href="#DejaVuSans-33"/>
       <use xlink:href="#DejaVuSans-30" x="63.623047"/>
      </g>
     </g>
    </g>
    <g id="xtick_5">
     <g id="line2d_5">
      <g>
       <use xlink:href="#m022b8f5bce" x="267.384411" y="284.4" style="stroke: #000000; stroke-width: 0.8"/>
      </g>
     </g>
     <g id="text_5">
      <!-- 40 -->
      <g transform="translate(261.021911 298.998438) scale(0.1 -0.1)">
       <defs>
        <path id="DejaVuSans-34" d="M 2419 4116 
L 825 1625 
L 2419 1625 
L 2419 4116 
z
M 2253 4666 
L 3047 4666 
L 3047 1625 
L 3713 1625 
L 3713 1100 
L 3047 1100 
L 3047 0 
L 2419 0 
L 2419 1100 
L 313 1100 
L 313 1709 
L 2253 4666 
z
" transform="scale(0.015625)"/>
       </defs>
       <use xlink:href="#DejaVuSans-34"/>
       <use xlink:href="#DejaVuSans-30" x="63.623047"/>
      </g>
     </g>
    </g>
    <g id="xtick_6">
     <g id="line2d_6">
      <g>
       <use xlink:href="#m022b8f5bce" x="319.146934" y="284.4" style="stroke: #000000; stroke-width: 0.8"/>
      </g>
     </g>
     <g id="text_6">
      <!-- 50 -->
      <g transform="translate(312.784434 298.998438) scale(0.1 -0.1)">
       <defs>
        <path id="DejaVuSans-35" d="M 691 4666 
L 3169 4666 
L 3169 4134 
L 1269 4134 
L 1269 2991 
Q 1406 3038 1543 3061 
Q 1681 3084 1819 3084 
Q 2600 3084 3056 2656 
Q 3513 2228 3513 1497 
Q 3513 744 3044 326 
Q 2575 -91 1722 -91 
Q 1428 -91 1123 -41 
Q 819 9 494 109 
L 494 744 
Q 775 591 1075 516 
Q 1375 441 1709 441 
Q 2250 441 2565 725 
Q 2881 1009 2881 1497 
Q 2881 1984 2565 2268 
Q 2250 2553 1709 2553 
Q 1456 2553 1204 2497 
Q 953 2441 691 2322 
L 691 4666 
z
" transform="scale(0.015625)"/>
       </defs>
       <use xlink:href="#DejaVuSans-35"/>
       <use xlink:href="#DejaVuSans-30" x="63.623047"/>
      </g>
     </g>
    </g>
    <g id="text_7">
     <!-- Epochs -->
     <g transform="translate(162.070625 315.715937) scale(0.14 -0.14)">
      <defs>
       <path id="DejaVuSans-45" d="M 628 4666 
L 3578 4666 
L 3578 4134 
L 1259 4134 
L 1259 2753 
L 3481 2753 
L 3481 2222 
L 1259 2222 
L 1259 531 
L 3634 531 
L 3634 0 
L 628 0 
L 628 4666 
z
" transform="scale(0.015625)"/>
       <path id="DejaVuSans-70" d="M 1159 525 
L 1159 -1331 
L 581 -1331 
L 581 3500 
L 1159 3500 
L 1159 2969 
Q 1341 3281 1617 3432 
Q 1894 3584 2278 3584 
Q 2916 3584 3314 3078 
Q 3713 2572 3713 1747 
Q 3713 922 3314 415 
Q 2916 -91 2278 -91 
Q 1894 -91 1617 61 
Q 1341 213 1159 525 
z
M 3116 1747 
Q 3116 2381 2855 2742 
Q 2594 3103 2138 3103 
Q 1681 3103 1420 2742 
Q 1159 2381 1159 1747 
Q 1159 1113 1420 752 
Q 1681 391 2138 391 
Q 2594 391 2855 752 
Q 3116 1113 3116 1747 
z
" transform="scale(0.015625)"/>
       <path id="DejaVuSans-6f" d="M 1959 3097 
Q 1497 3097 1228 2736 
Q 959 2375 959 1747 
Q 959 1119 1226 758 
Q 1494 397 1959 397 
Q 2419 397 2687 759 
Q 2956 1122 2956 1747 
Q 2956 2369 2687 2733 
Q 2419 3097 1959 3097 
z
M 1959 3584 
Q 2709 3584 3137 3096 
Q 3566 2609 3566 1747 
Q 3566 888 3137 398 
Q 2709 -91 1959 -91 
Q 1206 -91 779 398 
Q 353 888 353 1747 
Q 353 2609 779 3096 
Q 1206 3584 1959 3584 
z
" transform="scale(0.015625)"/>
       <path id="DejaVuSans-63" d="M 3122 3366 
L 3122 2828 
Q 2878 2963 2633 3030 
Q 2388 3097 2138 3097 
Q 1578 3097 1268 2742 
Q 959 2388 959 1747 
Q 959 1106 1268 751 
Q 1578 397 2138 397 
Q 2388 397 2633 464 
Q 2878 531 3122 666 
L 3122 134 
Q 2881 22 2623 -34 
Q 2366 -91 2075 -91 
Q 1284 -91 818 406 
Q 353 903 353 1747 
Q 353 2603 823 3093 
Q 1294 3584 2113 3584 
Q 2378 3584 2631 3529 
Q 2884 3475 3122 3366 
z
" transform="scale(0.015625)"/>
       <path id="DejaVuSans-68" d="M 3513 2113 
L 3513 0 
L 2938 0 
L 2938 2094 
Q 2938 2591 2744 2837 
Q 2550 3084 2163 3084 
Q 1697 3084 1428 2787 
Q 1159 2491 1159 1978 
L 1159 0 
L 581 0 
L 581 4863 
L 1159 4863 
L 1159 2956 
Q 1366 3272 1645 3428 
Q 1925 3584 2291 3584 
Q 2894 3584 3203 3211 
Q 3513 2838 3513 2113 
z
" transform="scale(0.015625)"/>
       <path id="DejaVuSans-73" d="M 2834 3397 
L 2834 2853 
Q 2591 2978 2328 3040 
Q 2066 3103 1784 3103 
Q 1356 3103 1142 2972 
Q 928 2841 928 2578 
Q 928 2378 1081 2264 
Q 1234 2150 1697 2047 
L 1894 2003 
Q 2506 1872 2764 1633 
Q 3022 1394 3022 966 
Q 3022 478 2636 193 
Q 2250 -91 1575 -91 
Q 1294 -91 989 -36 
Q 684 19 347 128 
L 347 722 
Q 666 556 975 473 
Q 1284 391 1588 391 
Q 1994 391 2212 530 
Q 2431 669 2431 922 
Q 2431 1156 2273 1281 
Q 2116 1406 1581 1522 
L 1381 1569 
Q 847 1681 609 1914 
Q 372 2147 372 2553 
Q 372 3047 722 3315 
Q 1072 3584 1716 3584 
Q 2034 3584 2315 3537 
Q 2597 3491 2834 3397 
z
" transform="scale(0.015625)"/>
      </defs>
      <use xlink:href="#DejaVuSans-45"/>
      <use xlink:href="#DejaVuSans-70" x="63.183594"/>
      <use xlink:href="#DejaVuSans-6f" x="126.660156"/>
      <use xlink:href="#DejaVuSans-63" x="187.841797"/>
      <use xlink:href="#DejaVuSans-68" x="242.822266"/>
      <use xlink:href="#DejaVuSans-73" x="306.201172"/>
     </g>
    </g>
   </g>
   <g id="matplotlib.axis_2">
    <g id="ytick_1">
     <g id="line2d_7">
      <defs>
       <path id="mcb1d551f58" d="M 0 0 
L -3.5 0 
" style="stroke: #000000; stroke-width: 0.8"/>
      </defs>
      <g>
       <use xlink:href="#mcb1d551f58" x="47.6525" y="271.812132" style="stroke: #000000; stroke-width: 0.8"/>
      </g>
     </g>
     <g id="text_8">
      <!-- 0.0 -->
      <g transform="translate(24.749375 275.611351) scale(0.1 -0.1)">
       <defs>
        <path id="DejaVuSans-2e" d="M 684 794 
L 1344 794 
L 1344 0 
L 684 0 
L 684 794 
z
" transform="scale(0.015625)"/>
       </defs>
       <use xlink:href="#DejaVuSans-30"/>
       <use xlink:href="#DejaVuSans-2e" x="63.623047"/>
       <use xlink:href="#DejaVuSans-30" x="95.410156"/>
      </g>
     </g>
    </g>
    <g id="ytick_2">
     <g id="line2d_8">
      <g>
       <use xlink:href="#mcb1d551f58" x="47.6525" y="232.160518" style="stroke: #000000; stroke-width: 0.8"/>
      </g>
     </g>
     <g id="text_9">
      <!-- 0.2 -->
      <g transform="translate(24.749375 235.959736) scale(0.1 -0.1)">
       <use xlink:href="#DejaVuSans-30"/>
       <use xlink:href="#DejaVuSans-2e" x="63.623047"/>
       <use xlink:href="#DejaVuSans-32" x="95.410156"/>
      </g>
     </g>
    </g>
    <g id="ytick_3">
     <g id="line2d_9">
      <g>
       <use xlink:href="#mcb1d551f58" x="47.6525" y="192.508903" style="stroke: #000000; stroke-width: 0.8"/>
      </g>
     </g>
     <g id="text_10">
      <!-- 0.4 -->
      <g transform="translate(24.749375 196.308122) scale(0.1 -0.1)">
       <use xlink:href="#DejaVuSans-30"/>
       <use xlink:href="#DejaVuSans-2e" x="63.623047"/>
       <use xlink:href="#DejaVuSans-34" x="95.410156"/>
      </g>
     </g>
    </g>
    <g id="ytick_4">
     <g id="line2d_10">
      <g>
       <use xlink:href="#mcb1d551f58" x="47.6525" y="152.857288" style="stroke: #000000; stroke-width: 0.8"/>
      </g>
     </g>
     <g id="text_11">
      <!-- 0.6 -->
      <g transform="translate(24.749375 156.656507) scale(0.1 -0.1)">
       <defs>
        <path id="DejaVuSans-36" d="M 2113 2584 
Q 1688 2584 1439 2293 
Q 1191 2003 1191 1497 
Q 1191 994 1439 701 
Q 1688 409 2113 409 
Q 2538 409 2786 701 
Q 3034 994 3034 1497 
Q 3034 2003 2786 2293 
Q 2538 2584 2113 2584 
z
M 3366 4563 
L 3366 3988 
Q 3128 4100 2886 4159 
Q 2644 4219 2406 4219 
Q 1781 4219 1451 3797 
Q 1122 3375 1075 2522 
Q 1259 2794 1537 2939 
Q 1816 3084 2150 3084 
Q 2853 3084 3261 2657 
Q 3669 2231 3669 1497 
Q 3669 778 3244 343 
Q 2819 -91 2113 -91 
Q 1303 -91 875 529 
Q 447 1150 447 2328 
Q 447 3434 972 4092 
Q 1497 4750 2381 4750 
Q 2619 4750 2861 4703 
Q 3103 4656 3366 4563 
z
" transform="scale(0.015625)"/>
       </defs>
       <use xlink:href="#DejaVuSans-30"/>
       <use xlink:href="#DejaVuSans-2e" x="63.623047"/>
       <use xlink:href="#DejaVuSans-36" x="95.410156"/>
      </g>
     </g>
    </g>
    <g id="ytick_5">
     <g id="line2d_11">
      <g>
       <use xlink:href="#mcb1d551f58" x="47.6525" y="113.205674" style="stroke: #000000; stroke-width: 0.8"/>
      </g>
     </g>
     <g id="text_12">
      <!-- 0.8 -->
      <g transform="translate(24.749375 117.004893) scale(0.1 -0.1)">
       <defs>
        <path id="DejaVuSans-38" d="M 2034 2216 
Q 1584 2216 1326 1975 
Q 1069 1734 1069 1313 
Q 1069 891 1326 650 
Q 1584 409 2034 409 
Q 2484 409 2743 651 
Q 3003 894 3003 1313 
Q 3003 1734 2745 1975 
Q 2488 2216 2034 2216 
z
M 1403 2484 
Q 997 2584 770 2862 
Q 544 3141 544 3541 
Q 544 4100 942 4425 
Q 1341 4750 2034 4750 
Q 2731 4750 3128 4425 
Q 3525 4100 3525 3541 
Q 3525 3141 3298 2862 
Q 3072 2584 2669 2484 
Q 3125 2378 3379 2068 
Q 3634 1759 3634 1313 
Q 3634 634 3220 271 
Q 2806 -91 2034 -91 
Q 1263 -91 848 271 
Q 434 634 434 1313 
Q 434 1759 690 2068 
Q 947 2378 1403 2484 
z
M 1172 3481 
Q 1172 3119 1398 2916 
Q 1625 2713 2034 2713 
Q 2441 2713 2670 2916 
Q 2900 3119 2900 3481 
Q 2900 3844 2670 4047 
Q 2441 4250 2034 4250 
Q 1625 4250 1398 4047 
Q 1172 3844 1172 3481 
z
" transform="scale(0.015625)"/>
       </defs>
       <use xlink:href="#DejaVuSans-30"/>
       <use xlink:href="#DejaVuSans-2e" x="63.623047"/>
       <use xlink:href="#DejaVuSans-38" x="95.410156"/>
      </g>
     </g>
    </g>
    <g id="ytick_6">
     <g id="line2d_12">
      <g>
       <use xlink:href="#mcb1d551f58" x="47.6525" y="73.554059" style="stroke: #000000; stroke-width: 0.8"/>
      </g>
     </g>
     <g id="text_13">
      <!-- 1.0 -->
      <g transform="translate(24.749375 77.353278) scale(0.1 -0.1)">
       <use xlink:href="#DejaVuSans-31"/>
       <use xlink:href="#DejaVuSans-2e" x="63.623047"/>
       <use xlink:href="#DejaVuSans-30" x="95.410156"/>
      </g>
     </g>
    </g>
    <g id="ytick_7">
     <g id="line2d_13">
      <g>
       <use xlink:href="#mcb1d551f58" x="47.6525" y="33.902444" style="stroke: #000000; stroke-width: 0.8"/>
      </g>
     </g>
     <g id="text_14">
      <!-- 1.2 -->
      <g transform="translate(24.749375 37.701663) scale(0.1 -0.1)">
       <use xlink:href="#DejaVuSans-31"/>
       <use xlink:href="#DejaVuSans-2e" x="63.623047"/>
       <use xlink:href="#DejaVuSans-32" x="95.410156"/>
      </g>
     </g>
    </g>
    <g id="text_15">
     <!-- Loss -->
     <g transform="translate(17.837812 161.154062) rotate(-90) scale(0.14 -0.14)">
      <defs>
       <path id="DejaVuSans-4c" d="M 628 4666 
L 1259 4666 
L 1259 531 
L 3531 531 
L 3531 0 
L 628 0 
L 628 4666 
z
" transform="scale(0.015625)"/>
      </defs>
      <use xlink:href="#DejaVuSans-4c"/>
      <use xlink:href="#DejaVuSans-6f" x="53.962891"/>
      <use xlink:href="#DejaVuSans-73" x="115.144531"/>
      <use xlink:href="#DejaVuSans-73" x="167.244141"/>
     </g>
    </g>
   </g>
   <g id="line2d_14">
    <path d="M 60.334318 163.821028 
L 65.510571 212.691474 
L 70.686823 230.470917 
L 75.863075 237.186177 
L 81.039327 240.824122 
L 86.21558 250.995131 
L 91.391832 261.15838 
L 96.568084 262.232897 
L 101.744337 261.952917 
L 106.920589 264.6801 
L 112.096841 267.740249 
L 117.273094 268.759317 
L 122.449346 266.741233 
L 127.625598 264.437849 
L 132.801851 266.24284 
L 137.978103 265.297207 
L 143.154355 270.305793 
L 148.330608 270.320633 
L 153.50686 270.115566 
L 158.683112 269.924815 
L 163.859365 266.985064 
L 169.035617 268.710152 
L 174.211869 270.903835 
L 179.388122 271.487768 
L 184.564374 271.602941 
L 189.740626 271.199354 
L 194.916878 271.640017 
L 200.093131 271.638889 
L 205.269383 271.692993 
L 210.445635 271.739513 
L 215.621888 271.759587 
L 220.79814 270.823319 
L 225.974392 267.690629 
L 231.150645 268.615209 
L 236.326897 268.416304 
L 241.503149 270.803756 
L 246.679402 269.963882 
L 251.855654 270.655344 
L 257.031906 271.236377 
L 262.208159 271.596473 
L 267.384411 267.619328 
L 272.560663 271.193981 
L 277.736916 271.730278 
L 282.913168 271.238108 
L 288.08942 270.156375 
L 293.265673 267.557308 
L 298.441925 270.65152 
L 303.618177 271.736356 
L 308.794429 271.766627 
L 313.970682 271.758341 
" clip-path="url(#p183a432266)" style="fill: none; stroke: #1f77b4; stroke-width: 1.5; stroke-linecap: square"/>
   </g>
   <g id="line2d_15">
    <path d="M 60.334318 227.796198 
L 65.510571 195.647465 
L 70.686823 144.236141 
L 75.863075 267.340458 
L 81.039327 264.849463 
L 86.21558 256.000494 
L 91.391832 264.515024 
L 96.568084 271.424892 
L 101.744337 271.121826 
L 106.920589 271.411647 
L 112.096841 98.328684 
L 117.273094 271.131097 
L 122.449346 271.225373 
L 127.625598 271.43601 
L 132.801851 271.435823 
L 137.978103 271.566175 
L 143.154355 195.48927 
L 148.330608 271.666392 
L 153.50686 271.722282 
L 158.683112 271.758597 
L 163.859365 270.886889 
L 169.035617 265.926017 
L 174.211869 270.444342 
L 179.388122 271.699013 
L 184.564374 271.688684 
L 189.740626 271.758115 
L 194.916878 271.784728 
L 200.093131 271.791826 
L 205.269383 271.693003 
L 210.445635 271.788194 
L 215.621888 271.783016 
L 220.79814 271.784801 
L 225.974392 271.778767 
L 231.150645 271.789546 
L 236.326897 271.794838 
L 241.503149 271.736545 
L 246.679402 271.583289 
L 251.855654 271.692962 
L 257.031906 271.390491 
L 262.208159 271.795343 
L 267.384411 271.760367 
L 272.560663 271.789887 
L 277.736916 271.188752 
L 282.913168 271.782788 
L 288.08942 271.8 
L 293.265673 271.794227 
L 298.441925 271.799594 
L 303.618177 271.780595 
L 308.794429 271.785233 
L 313.970682 271.746478 
" clip-path="url(#p183a432266)" style="fill: none; stroke: #ff7f0e; stroke-width: 1.5; stroke-linecap: square"/>
   </g>
   <g id="line2d_16">
    <path d="M 60.334318 141.919209 
L 65.510571 197.44929 
L 70.686823 210.401306 
L 75.863075 198.524037 
L 81.039327 228.184308 
L 86.21558 213.698248 
L 91.391832 162.817198 
L 96.568084 238.448179 
L 101.744337 158.620886 
L 106.920589 200.746072 
L 112.096841 236.607564 
L 117.273094 221.757955 
L 122.449346 163.023123 
L 127.625598 211.438765 
L 132.801851 170.742633 
L 137.978103 233.798858 
L 143.154355 157.392806 
L 148.330608 187.484607 
L 153.50686 219.551099 
L 158.683112 226.712798 
L 163.859365 224.808832 
L 169.035617 225.758389 
L 174.211869 245.240779 
L 179.388122 245.469771 
L 184.564374 225.742696 
L 189.740626 198.846892 
L 194.916878 245.470745 
L 200.093131 136.969533 
L 205.269383 137.81754 
L 210.445635 121.490323 
L 215.621888 105.9036 
L 220.79814 131.989002 
L 225.974392 131.514995 
L 231.150645 134.874089 
L 236.326897 136.041382 
L 241.503149 135.124895 
L 246.679402 135.294459 
L 251.855654 132.313193 
L 257.031906 135.898431 
L 262.208159 134.167745 
L 267.384411 134.630656 
L 272.560663 125.079992 
L 277.736916 151.520663 
L 282.913168 173.402763 
L 288.08942 207.192189 
L 293.265673 224.644332 
L 298.441925 231.653924 
L 303.618177 231.255543 
L 308.794429 212.901492 
L 313.970682 226.159072 
" clip-path="url(#p183a432266)" style="fill: none; stroke: #2ca02c; stroke-width: 1.5; stroke-linecap: square"/>
   </g>
   <g id="line2d_17">
    <path d="M 60.334318 245.226696 
L 65.510571 147.054378 
L 70.686823 108.706073 
L 75.863075 132.244264 
L 81.039327 130.980365 
L 86.21558 166.831042 
L 91.391832 239.174272 
L 96.568084 149.170395 
L 101.744337 194.180313 
L 106.920589 197.323987 
L 112.096841 157.822393 
L 117.273094 165.876776 
L 122.449346 152.789253 
L 127.625598 236.265391 
L 132.801851 238.665504 
L 137.978103 209.9224 
L 143.154355 235.488822 
L 148.330608 204.579227 
L 153.50686 221.386136 
L 158.683112 242.69326 
L 163.859365 151.189702 
L 169.035617 229.390866 
L 174.211869 255.651916 
L 179.388122 266.024822 
L 184.564374 245.502882 
L 189.740626 247.54406 
L 194.916878 251.562628 
L 200.093131 229.129903 
L 205.269383 263.39868 
L 210.445635 109.125427 
L 215.621888 124.522485 
L 220.79814 99.980124 
L 225.974392 93.636125 
L 231.150645 78.197849 
L 236.326897 78.256238 
L 241.503149 139.939726 
L 246.679402 109.075086 
L 251.855654 206.338811 
L 257.031906 109.187337 
L 262.208159 78.417671 
L 267.384411 109.276733 
L 272.560663 19.8 
L 277.736916 109.225057 
L 282.913168 139.973476 
L 288.08942 140.073117 
L 293.265673 124.668568 
L 298.441925 140.006493 
L 303.618177 146.237036 
L 308.794429 78.562206 
L 313.970682 165.027611 
" clip-path="url(#p183a432266)" style="fill: none; stroke: #d62728; stroke-width: 1.5; stroke-linecap: square"/>
   </g>
   <g id="line2d_18">
    <path d="M 60.334318 218.95069 
L 65.510571 178.332923 
L 70.686823 221.767958 
L 75.863075 245.709247 
L 81.039327 237.931745 
L 86.21558 233.285044 
L 91.391832 269.072824 
L 96.568084 249.13517 
L 101.744337 256.948057 
L 106.920589 248.569498 
L 112.096841 217.946857 
L 117.273094 249.855856 
L 122.449346 252.737596 
L 127.625598 241.348559 
L 132.801851 265.862984 
L 137.978103 263.873843 
L 143.154355 256.169668 
L 148.330608 268.702599 
L 153.50686 252.471229 
L 158.683112 248.891511 
L 163.859365 268.450687 
L 169.035617 209.615374 
L 174.211869 268.364762 
L 179.388122 265.681962 
L 184.564374 223.258083 
L 189.740626 242.445106 
L 194.916878 257.829543 
L 200.093131 247.48229 
L 205.269383 269.402013 
L 210.445635 247.431701 
L 215.621888 211.016428 
L 220.79814 210.422589 
L 225.974392 270.661291 
L 231.150645 245.900752 
L 236.326897 264.891095 
L 241.503149 246.420264 
L 246.679402 269.286818 
L 251.855654 270.001365 
L 257.031906 236.172982 
L 262.208159 231.925738 
L 267.384411 235.053914 
L 272.560663 271.710465 
L 277.736916 258.993754 
L 282.913168 271.707567 
L 288.08942 246.676657 
L 293.265673 262.007677 
L 298.441925 247.22509 
L 303.618177 269.130115 
L 308.794429 271.754416 
L 313.970682 234.392862 
" clip-path="url(#p183a432266)" style="fill: none; stroke: #9467bd; stroke-width: 1.5; stroke-linecap: square"/>
   </g>
   <g id="patch_3">
    <path d="M 47.6525 284.4 
L 47.6525 7.2 
" style="fill: none; stroke: #000000; stroke-width: 0.8; stroke-linejoin: miter; stroke-linecap: square"/>
   </g>
   <g id="patch_4">
    <path d="M 326.6525 284.4 
L 326.6525 7.2 
" style="fill: none; stroke: #000000; stroke-width: 0.8; stroke-linejoin: miter; stroke-linecap: square"/>
   </g>
   <g id="patch_5">
    <path d="M 47.6525 284.4 
L 326.6525 284.4 
" style="fill: none; stroke: #000000; stroke-width: 0.8; stroke-linejoin: miter; stroke-linecap: square"/>
   </g>
   <g id="patch_6">
    <path d="M 47.6525 7.2 
L 326.6525 7.2 
" style="fill: none; stroke: #000000; stroke-width: 0.8; stroke-linejoin: miter; stroke-linecap: square"/>
   </g>
   <g id="legend_1">
    <g id="patch_7">
     <path d="M 82.461094 378.014375 
L 291.843906 378.014375 
Q 293.843906 378.014375 293.843906 376.014375 
L 293.843906 332.98 
Q 293.843906 330.98 291.843906 330.98 
L 82.461094 330.98 
Q 80.461094 330.98 80.461094 332.98 
L 80.461094 376.014375 
Q 80.461094 378.014375 82.461094 378.014375 
z
" style="fill: #ffffff; opacity: 0.8; stroke: #cccccc; stroke-linejoin: miter"/>
    </g>
    <g id="line2d_19">
     <path d="M 84.461094 339.078438 
L 94.461094 339.078438 
L 104.461094 339.078438 
" style="fill: none; stroke: #1f77b4; stroke-width: 1.5; stroke-linecap: square"/>
    </g>
    <g id="text_16">
     <!-- roberta -->
     <g transform="translate(112.461094 342.578438) scale(0.1 -0.1)">
      <defs>
       <path id="DejaVuSans-72" d="M 2631 2963 
Q 2534 3019 2420 3045 
Q 2306 3072 2169 3072 
Q 1681 3072 1420 2755 
Q 1159 2438 1159 1844 
L 1159 0 
L 581 0 
L 581 3500 
L 1159 3500 
L 1159 2956 
Q 1341 3275 1631 3429 
Q 1922 3584 2338 3584 
Q 2397 3584 2469 3576 
Q 2541 3569 2628 3553 
L 2631 2963 
z
" transform="scale(0.015625)"/>
       <path id="DejaVuSans-62" d="M 3116 1747 
Q 3116 2381 2855 2742 
Q 2594 3103 2138 3103 
Q 1681 3103 1420 2742 
Q 1159 2381 1159 1747 
Q 1159 1113 1420 752 
Q 1681 391 2138 391 
Q 2594 391 2855 752 
Q 3116 1113 3116 1747 
z
M 1159 2969 
Q 1341 3281 1617 3432 
Q 1894 3584 2278 3584 
Q 2916 3584 3314 3078 
Q 3713 2572 3713 1747 
Q 3713 922 3314 415 
Q 2916 -91 2278 -91 
Q 1894 -91 1617 61 
Q 1341 213 1159 525 
L 1159 0 
L 581 0 
L 581 4863 
L 1159 4863 
L 1159 2969 
z
" transform="scale(0.015625)"/>
       <path id="DejaVuSans-65" d="M 3597 1894 
L 3597 1613 
L 953 1613 
Q 991 1019 1311 708 
Q 1631 397 2203 397 
Q 2534 397 2845 478 
Q 3156 559 3463 722 
L 3463 178 
Q 3153 47 2828 -22 
Q 2503 -91 2169 -91 
Q 1331 -91 842 396 
Q 353 884 353 1716 
Q 353 2575 817 3079 
Q 1281 3584 2069 3584 
Q 2775 3584 3186 3129 
Q 3597 2675 3597 1894 
z
M 3022 2063 
Q 3016 2534 2758 2815 
Q 2500 3097 2075 3097 
Q 1594 3097 1305 2825 
Q 1016 2553 972 2059 
L 3022 2063 
z
" transform="scale(0.015625)"/>
       <path id="DejaVuSans-74" d="M 1172 4494 
L 1172 3500 
L 2356 3500 
L 2356 3053 
L 1172 3053 
L 1172 1153 
Q 1172 725 1289 603 
Q 1406 481 1766 481 
L 2356 481 
L 2356 0 
L 1766 0 
Q 1100 0 847 248 
Q 594 497 594 1153 
L 594 3053 
L 172 3053 
L 172 3500 
L 594 3500 
L 594 4494 
L 1172 4494 
z
" transform="scale(0.015625)"/>
       <path id="DejaVuSans-61" d="M 2194 1759 
Q 1497 1759 1228 1600 
Q 959 1441 959 1056 
Q 959 750 1161 570 
Q 1363 391 1709 391 
Q 2188 391 2477 730 
Q 2766 1069 2766 1631 
L 2766 1759 
L 2194 1759 
z
M 3341 1997 
L 3341 0 
L 2766 0 
L 2766 531 
Q 2569 213 2275 61 
Q 1981 -91 1556 -91 
Q 1019 -91 701 211 
Q 384 513 384 1019 
Q 384 1609 779 1909 
Q 1175 2209 1959 2209 
L 2766 2209 
L 2766 2266 
Q 2766 2663 2505 2880 
Q 2244 3097 1772 3097 
Q 1472 3097 1187 3025 
Q 903 2953 641 2809 
L 641 3341 
Q 956 3463 1253 3523 
Q 1550 3584 1831 3584 
Q 2591 3584 2966 3190 
Q 3341 2797 3341 1997 
z
" transform="scale(0.015625)"/>
      </defs>
      <use xlink:href="#DejaVuSans-72"/>
      <use xlink:href="#DejaVuSans-6f" x="38.863281"/>
      <use xlink:href="#DejaVuSans-62" x="100.044922"/>
      <use xlink:href="#DejaVuSans-65" x="163.521484"/>
      <use xlink:href="#DejaVuSans-72" x="225.044922"/>
      <use xlink:href="#DejaVuSans-74" x="266.158203"/>
      <use xlink:href="#DejaVuSans-61" x="305.367188"/>
     </g>
    </g>
    <g id="line2d_20">
     <path d="M 84.461094 353.756563 
L 94.461094 353.756563 
L 104.461094 353.756563 
" style="fill: none; stroke: #ff7f0e; stroke-width: 1.5; stroke-linecap: square"/>
    </g>
    <g id="text_17">
     <!-- roberta appnp -->
     <g transform="translate(112.461094 357.256563) scale(0.1 -0.1)">
      <defs>
       <path id="DejaVuSans-20" transform="scale(0.015625)"/>
       <path id="DejaVuSans-6e" d="M 3513 2113 
L 3513 0 
L 2938 0 
L 2938 2094 
Q 2938 2591 2744 2837 
Q 2550 3084 2163 3084 
Q 1697 3084 1428 2787 
Q 1159 2491 1159 1978 
L 1159 0 
L 581 0 
L 581 3500 
L 1159 3500 
L 1159 2956 
Q 1366 3272 1645 3428 
Q 1925 3584 2291 3584 
Q 2894 3584 3203 3211 
Q 3513 2838 3513 2113 
z
" transform="scale(0.015625)"/>
      </defs>
      <use xlink:href="#DejaVuSans-72"/>
      <use xlink:href="#DejaVuSans-6f" x="38.863281"/>
      <use xlink:href="#DejaVuSans-62" x="100.044922"/>
      <use xlink:href="#DejaVuSans-65" x="163.521484"/>
      <use xlink:href="#DejaVuSans-72" x="225.044922"/>
      <use xlink:href="#DejaVuSans-74" x="266.158203"/>
      <use xlink:href="#DejaVuSans-61" x="305.367188"/>
      <use xlink:href="#DejaVuSans-20" x="366.646484"/>
      <use xlink:href="#DejaVuSans-61" x="398.433594"/>
      <use xlink:href="#DejaVuSans-70" x="459.712891"/>
      <use xlink:href="#DejaVuSans-70" x="523.189453"/>
      <use xlink:href="#DejaVuSans-6e" x="586.666016"/>
      <use xlink:href="#DejaVuSans-70" x="650.044922"/>
     </g>
    </g>
    <g id="line2d_21">
     <path d="M 84.461094 368.434687 
L 94.461094 368.434687 
L 104.461094 368.434687 
" style="fill: none; stroke: #2ca02c; stroke-width: 1.5; stroke-linecap: square"/>
    </g>
    <g id="text_18">
     <!-- roberta sgc -->
     <g transform="translate(112.461094 371.934687) scale(0.1 -0.1)">
      <defs>
       <path id="DejaVuSans-67" d="M 2906 1791 
Q 2906 2416 2648 2759 
Q 2391 3103 1925 3103 
Q 1463 3103 1205 2759 
Q 947 2416 947 1791 
Q 947 1169 1205 825 
Q 1463 481 1925 481 
Q 2391 481 2648 825 
Q 2906 1169 2906 1791 
z
M 3481 434 
Q 3481 -459 3084 -895 
Q 2688 -1331 1869 -1331 
Q 1566 -1331 1297 -1286 
Q 1028 -1241 775 -1147 
L 775 -588 
Q 1028 -725 1275 -790 
Q 1522 -856 1778 -856 
Q 2344 -856 2625 -561 
Q 2906 -266 2906 331 
L 2906 616 
Q 2728 306 2450 153 
Q 2172 0 1784 0 
Q 1141 0 747 490 
Q 353 981 353 1791 
Q 353 2603 747 3093 
Q 1141 3584 1784 3584 
Q 2172 3584 2450 3431 
Q 2728 3278 2906 2969 
L 2906 3500 
L 3481 3500 
L 3481 434 
z
" transform="scale(0.015625)"/>
      </defs>
      <use xlink:href="#DejaVuSans-72"/>
      <use xlink:href="#DejaVuSans-6f" x="38.863281"/>
      <use xlink:href="#DejaVuSans-62" x="100.044922"/>
      <use xlink:href="#DejaVuSans-65" x="163.521484"/>
      <use xlink:href="#DejaVuSans-72" x="225.044922"/>
      <use xlink:href="#DejaVuSans-74" x="266.158203"/>
      <use xlink:href="#DejaVuSans-61" x="305.367188"/>
      <use xlink:href="#DejaVuSans-20" x="366.646484"/>
      <use xlink:href="#DejaVuSans-73" x="398.433594"/>
      <use xlink:href="#DejaVuSans-67" x="450.533203"/>
      <use xlink:href="#DejaVuSans-63" x="514.009766"/>
     </g>
    </g>
    <g id="line2d_22">
     <path d="M 203.815781 339.078438 
L 213.815781 339.078438 
L 223.815781 339.078438 
" style="fill: none; stroke: #d62728; stroke-width: 1.5; stroke-linecap: square"/>
    </g>
    <g id="text_19">
     <!-- roberta gat -->
     <g transform="translate(231.815781 342.578438) scale(0.1 -0.1)">
      <use xlink:href="#DejaVuSans-72"/>
      <use xlink:href="#DejaVuSans-6f" x="38.863281"/>
      <use xlink:href="#DejaVuSans-62" x="100.044922"/>
      <use xlink:href="#DejaVuSans-65" x="163.521484"/>
      <use xlink:href="#DejaVuSans-72" x="225.044922"/>
      <use xlink:href="#DejaVuSans-74" x="266.158203"/>
      <use xlink:href="#DejaVuSans-61" x="305.367188"/>
      <use xlink:href="#DejaVuSans-20" x="366.646484"/>
      <use xlink:href="#DejaVuSans-67" x="398.433594"/>
      <use xlink:href="#DejaVuSans-61" x="461.910156"/>
      <use xlink:href="#DejaVuSans-74" x="523.189453"/>
     </g>
    </g>
    <g id="line2d_23">
     <path d="M 203.815781 353.756563 
L 213.815781 353.756563 
L 223.815781 353.756563 
" style="fill: none; stroke: #9467bd; stroke-width: 1.5; stroke-linecap: square"/>
    </g>
    <g id="text_20">
     <!-- roberta gcn -->
     <g transform="translate(231.815781 357.256563) scale(0.1 -0.1)">
      <use xlink:href="#DejaVuSans-72"/>
      <use xlink:href="#DejaVuSans-6f" x="38.863281"/>
      <use xlink:href="#DejaVuSans-62" x="100.044922"/>
      <use xlink:href="#DejaVuSans-65" x="163.521484"/>
      <use xlink:href="#DejaVuSans-72" x="225.044922"/>
      <use xlink:href="#DejaVuSans-74" x="266.158203"/>
      <use xlink:href="#DejaVuSans-61" x="305.367188"/>
      <use xlink:href="#DejaVuSans-20" x="366.646484"/>
      <use xlink:href="#DejaVuSans-67" x="398.433594"/>
      <use xlink:href="#DejaVuSans-63" x="461.910156"/>
      <use xlink:href="#DejaVuSans-6e" x="516.890625"/>
     </g>
    </g>
   </g>
  </g>
 </g>
 <defs>
  <clipPath id="p183a432266">
   <rect x="47.6525" y="7.2" width="279" height="277.2"/>
  </clipPath>
 </defs>
</svg>
